<?xml version="1.0" standalone="no"?>
<!DOCTYPE svg PUBLIC "-//W3C//DTD SVG 20010904//EN"
 "http://www.w3.org/TR/2001/REC-SVG-20010904/DTD/svg10.dtd">
<svg version="1.0" xmlns="http://www.w3.org/2000/svg"
 width="700.000000pt" height="700.000000pt" viewBox="0 0 700.000000 700.000000"
 preserveAspectRatio="xMidYMid meet">
<metadata>
Created by potrace 1.14, written by Peter Selinger 2001-2017
</metadata>
<g transform="translate(0.000000,700.000000) scale(0.100000,-0.100000)"
fill="#000000" stroke="none">
<path d="M3429 6062 c-35 -33 -116 -105 -179 -162 -63 -57 -153 -137 -199
-179 -46 -42 -94 -85 -107 -96 -12 -11 -57 -52 -100 -91 -44 -39 -97 -86 -119
-105 -22 -19 -44 -39 -50 -45 -5 -7 -84 -78 -175 -159 -91 -81 -205 -184 -254
-229 -49 -44 -102 -92 -119 -106 -16 -14 -46 -41 -66 -60 -21 -19 -73 -66
-116 -105 -43 -38 -83 -75 -89 -80 -6 -6 -76 -69 -156 -140 -80 -71 -163 -146
-185 -166 -51 -46 -164 -148 -236 -213 -30 -28 -73 -67 -95 -86 -146 -131
-341 -306 -350 -315 -6 -5 -41 -37 -79 -70 -37 -33 -91 -81 -119 -107 l-51
-47 437 -1 436 0 0 -1161 c0 -766 3 -1164 10 -1168 6 -3 399 -6 874 -5 l863 0
3 875 2 875 290 0 290 0 0 -873 c0 -480 3 -873 8 -874 4 -1 397 -2 875 -2
l867 -2 0 110 c1 61 1 586 1 1168 l1 1057 436 0 437 1 -45 40 c-25 23 -83 76
-129 118 -47 42 -96 87 -110 100 -31 28 -155 139 -185 164 -12 10 -39 35 -61
55 -22 20 -83 75 -135 122 -52 46 -107 96 -121 110 -14 14 -59 54 -100 90 -41
35 -76 67 -79 70 -5 5 -169 153 -244 220 -21 19 -44 40 -50 45 -6 6 -99 89
-206 185 -107 96 -217 195 -244 220 -27 25 -54 50 -60 55 -112 99 -197 176
-222 200 -18 16 -54 49 -80 72 -27 23 -63 55 -80 70 -71 65 -697 628 -726 654
-18 16 -36 29 -39 29 -3 0 -34 -26 -70 -58z m277 -907 c6 -5 44 -39 84 -75 40
-36 78 -70 84 -75 20 -19 323 -292 356 -321 32 -29 45 -41 125 -113 22 -20 85
-76 140 -126 55 -49 102 -92 105 -95 3 -3 46 -41 95 -85 50 -44 95 -85 101
-91 6 -5 45 -41 87 -78 l75 -68 0 -1139 0 -1139 -292 2 -291 3 0 872 0 873
-875 0 -875 0 0 -872 0 -873 -290 0 -290 0 -1 1137 -2 1137 32 28 c17 15 56
50 86 78 31 27 78 70 105 94 47 41 197 176 256 231 15 14 54 49 87 78 33 29
71 63 84 75 13 12 64 58 113 102 49 44 96 87 105 95 9 8 51 47 95 85 43 39 86
77 95 85 9 8 54 49 100 90 121 109 192 173 210 190 9 8 33 30 54 48 l37 33 97
-88 c53 -48 102 -92 108 -98z"/>
</g>
</svg>
