<?xml version="1.0" standalone="no"?>
<!DOCTYPE svg PUBLIC "-//W3C//DTD SVG 20010904//EN"
 "http://www.w3.org/TR/2001/REC-SVG-20010904/DTD/svg10.dtd">
<svg version="1.0" xmlns="http://www.w3.org/2000/svg"
 width="700.000000pt" height="700.000000pt" viewBox="0 0 700.000000 700.000000"
 preserveAspectRatio="xMidYMid meet">
<metadata>
Created by potrace 1.11, written by Peter Selinger 2001-2013
</metadata>
<g transform="translate(0.000000,700.000000) scale(0.100000,-0.100000)"
fill="#000000" stroke="none">
<path d="M3470 6099 c-14 -12 -68 -60 -120 -107 -52 -48 -117 -107 -145 -132
-27 -25 -52 -47 -55 -50 -3 -3 -45 -41 -95 -85 -49 -43 -97 -86 -106 -95 -31
-29 -106 -97 -244 -220 -77 -68 -147 -131 -156 -139 -8 -9 -51 -47 -94 -86
-43 -38 -83 -74 -89 -80 -6 -5 -54 -48 -106 -95 -52 -47 -100 -89 -106 -95 -6
-5 -51 -46 -99 -90 -134 -121 -206 -186 -245 -221 -19 -18 -44 -41 -56 -51
-17 -14 -133 -119 -198 -178 -6 -5 -52 -46 -101 -90 -50 -44 -110 -99 -135
-122 -25 -23 -54 -50 -66 -60 -21 -18 -150 -134 -204 -183 -16 -14 -63 -56
-106 -95 -43 -38 -88 -79 -101 -91 -12 -12 -58 -52 -100 -90 -43 -38 -96 -86
-118 -106 l-40 -37 437 -1 436 0 0 -1161 c0 -638 3 -1163 6 -1166 4 -5 1115
-7 1683 -3 l63 0 2 872 3 873 287 1 288 1 2 -874 3 -875 868 0 c478 0 871 2
873 5 3 3 5 527 5 1166 l1 1161 436 0 437 0 -35 33 c-19 17 -80 72 -135 122
-55 49 -107 96 -116 105 -14 13 -133 120 -181 161 -10 9 -55 50 -101 92 -45
41 -104 94 -131 118 -28 24 -64 58 -81 74 -18 17 -65 59 -106 95 -41 35 -76
67 -79 70 -5 5 -169 153 -244 220 -21 19 -44 40 -50 45 -6 6 -99 89 -206 185
-107 96 -217 195 -244 220 -27 25 -54 50 -60 55 -112 99 -197 176 -222 200
-18 16 -54 49 -80 72 -27 23 -71 62 -99 88 -27 26 -81 74 -119 108 -66 58
-244 219 -330 297 -52 47 -48 43 -151 135 -49 44 -101 90 -115 103 -30 27 -29
27 -60 1z m125 -844 c6 -5 49 -44 94 -85 106 -96 121 -109 162 -145 19 -16
106 -95 195 -175 88 -80 198 -179 244 -220 46 -41 88 -80 94 -85 6 -6 99 -89
206 -185 107 -96 215 -193 240 -216 25 -23 64 -58 86 -79 l42 -36 0 -1140 0
-1139 -292 2 -291 3 0 872 0 873 -875 0 -875 0 0 -872 0 -873 -290 0 -290 0
-1 1137 -2 1137 32 28 c28 25 72 65 191 172 22 20 153 138 290 261 138 124
252 227 255 230 3 3 93 84 200 180 107 96 197 177 200 180 3 3 48 43 100 90
52 47 97 87 100 90 3 3 25 22 49 43 l43 39 41 -39 c22 -21 46 -42 52 -48z"/>
</g>
</svg>
